<?xml version="1.0" encoding="utf-8"?>
<!-- Generator: Adobe Illustrator 23.0.6, SVG Export Plug-In . SVG Version: 6.00 Build 0)  -->
<svg version="1.1" id="Capa_1" xmlns="http://www.w3.org/2000/svg" xmlns:xlink="http://www.w3.org/1999/xlink" x="0px" y="0px"
	 viewBox="0 0 982 178" style="enable-background:new 0 0 982 178;" xml:space="preserve">
<style type="text/css">
	.st0{fill:#1D1D34;}
	.st1{fill:#00FF7F;}
</style>
<g id="XMLID_1_" transform="translate(-102.1 -182.7)">
	<g id="XMLID_2_" transform="translate(102.1 182.7)">
		<g id="XMLID_13_" transform="translate(42.938 0.379)">
			<path id="XMLID_32_" class="st0" d="M266.5,11.43v115.5h-21.54v-9.58c-6.5,8.13-16.54,12.59-26.93,11.97
				c-22.14,0-40.1-19.15-40.1-43.69s17.96-43.69,40.1-43.69c10.39-0.62,20.43,3.84,26.93,11.97V11.43H266.5z M244.96,85.64
				c-0.33-12.56-10.77-22.47-23.33-22.15c-12.56,0.33-22.47,10.77-22.15,23.33c0.32,12.32,10.4,22.15,22.73,22.15
				c12.05,0.53,22.25-8.8,22.78-20.85C245.02,87.3,245.01,86.47,244.96,85.64L244.96,85.64z"/>
			<path id="XMLID_29_" class="st0" d="M366.44,44.35v82.59H344.9v-9.58c-6.67,7.91-16.59,12.32-26.93,11.97
				c-22.14,0-40.1-19.15-40.1-43.69s17.96-43.69,40.1-43.69c10.34-0.35,20.26,4.07,26.93,11.97v-9.58H366.44z M345.49,85.64
				c-0.33-12.56-10.77-22.47-23.33-22.15c-12.56,0.33-22.47,10.77-22.15,23.33c0.32,12.32,10.4,22.15,22.73,22.15
				c12.05,0.53,22.25-8.8,22.78-20.85C345.56,87.3,345.55,86.47,345.49,85.64z"/>
			<path id="XMLID_27_" class="st0" d="M411.33,65.29v34.12c0,8.98,6.58,8.98,18.55,8.38v19.15c-29.92,3.59-40.1-5.39-40.1-27.53
				V65.29h-14.36V44.94h14.36V28.19l21.54-6.58v23.34h18.55v20.35H411.33z"/>
			<path id="XMLID_24_" class="st0" d="M523.23,44.35v82.59h-21.54v-9.58c-6.67,7.91-16.59,12.32-26.93,11.97
				c-22.14,0-40.1-19.15-40.1-43.69s17.96-43.69,40.1-43.69c10.34-0.35,20.26,4.07,26.93,11.97v-9.58H523.23z M501.69,85.64
				c-0.33-12.56-10.77-22.47-23.33-22.15c-12.56,0.33-22.47,10.77-22.15,23.33c0.32,12.32,10.4,22.15,22.73,22.15
				c12.05,0.53,22.25-8.8,22.78-20.85C501.76,87.3,501.75,86.47,501.69,85.64z"/>
			<path id="XMLID_21_" class="st0" d="M623.18,44.34v78.4c0,26.93-21.54,39.5-43.09,39.5c-17.96,0-31.72-6.58-38.9-20.35
				l17.96-10.17c3.59,6.58,8.98,11.37,21.54,11.37c13.16,0,21.54-7.18,21.54-20.35v-8.98c-6.26,8.17-16.05,12.84-26.33,12.57
				c-23.47-0.66-41.96-20.21-41.3-43.68c0.63-22.55,18.76-40.67,41.3-41.3c10.31-0.41,20.17,4.29,26.33,12.57V43.74h20.95
				L623.18,44.34z M602.23,84.44c0.34-12.24-9.3-22.43-21.54-22.77c-0.6-0.02-1.2-0.01-1.8,0.02c-12.42-0.46-22.86,9.23-23.32,21.65
				c-0.01,0.36-0.02,0.73-0.01,1.09c0.37,12.89,11.11,23.04,24,22.67C591.93,106.76,601.88,96.81,602.23,84.44z"/>
			<path id="XMLID_19_" class="st0" d="M685.42,43.15v23.94c-10.77-1.2-25.12,3.59-25.12,20.95v39.5h-21.56V44.35h21.54v14.36
				C664.52,48.72,674.59,42.49,685.42,43.15z"/>
			<path id="XMLID_16_" class="st0" d="M775.78,44.35v82.59h-21.54v-9.58c-6.67,7.91-16.59,12.32-26.93,11.97
				c-22.14,0-40.1-19.15-40.1-43.69s17.96-43.69,40.1-43.69c10.34-0.35,20.26,4.07,26.93,11.97v-9.58H775.78z M754.24,85.64
				c-0.33-12.56-10.77-22.47-23.33-22.15c-12.56,0.33-22.47,10.77-22.15,23.33c0.32,12.32,10.4,22.15,22.73,22.15
				c12.05,0.53,22.25-8.8,22.78-20.85C754.31,87.3,754.3,86.47,754.24,85.64z"/>
			<path id="XMLID_14_" class="st0" d="M868.54,76.66v50.87H847.6V79.67c0-11.37-6.58-16.76-16.16-16.76
				c-10.17,0-17.96,5.99-17.96,20.35v44.28h-21.54v-83.2h21.54v8.98c5.75-7.67,14.97-11.94,24.54-11.37
				C855.37,42.55,868.54,54.52,868.54,76.66z"/>
		</g>
		<g id="XMLID_7_" transform="translate(190.946 7.325)">
			<path id="XMLID_8_" class="st0" d="M754.05,48.77c0,6.28-5.09,11.37-11.37,11.37c-6.19-0.21-11.17-5.18-11.37-11.37
				c0-6.28,5.09-11.37,11.37-11.37C748.87,37.61,753.85,42.58,754.05,48.77z M752.86,48.77c0.09-5.76-4.42-10.53-10.17-10.77
				c-5.65,0.03-10.21,4.63-10.19,10.28c0,0.16,0.01,0.33,0.01,0.49c-0.09,5.76,4.42,10.53,10.17,10.77
				c5.65-0.03,10.21-4.64,10.18-10.29C752.86,49.09,752.86,48.93,752.86,48.77L752.86,48.77z M745.07,50.57l2.39,4.19h-2.42
				l-1.8-4.19h-1.8v4.19h-2.39V42.79h4.19c2.99,0,4.19,1.8,4.19,3.59c0.02,2.39-0.58,3.59-2.39,4.18L745.07,50.57z M741.48,48.77
				h1.8c0.99,0,1.8-0.8,1.8-1.8c0-0.99-0.8-1.8-1.8-1.8h-1.8V48.77z"/>
		</g>
		<g id="XMLID_3_" transform="translate(0 0)">
			<path id="XMLID_5_" class="st1" d="M137.68,71.05c-0.49,33.22-27.82,59.74-61.04,59.25c-33.22-0.49-59.74-27.82-59.25-61.04
				c0.49-32.98,27.45-59.42,60.44-59.26c32.79-0.27,59.6,26.1,59.87,58.89C137.71,69.62,137.7,70.34,137.68,71.05z"/>
			<path id="XMLID_4_" class="st1" d="M175.38,12.41h-23.34v114.9h46.08V12.41H175.38z"/>
		</g>
	</g>
</g>
</svg>
